<svg width="12" height="12" viewBox="0 0 12 12" fill="none" xmlns="http://www.w3.org/2000/svg">
<path d="M0 0.939375C6.32089e-06 0.767441 0.0472944 0.598819 0.136692 0.451954C0.22609 0.305088 0.354154 0.185636 0.506877 0.106661C0.6596 0.0276862 0.831101 -0.00776897 1.00262 0.00417374C1.17414 0.0161165 1.33907 0.0749971 1.47938 0.174375L8.04187 4.82719C8.16378 4.91339 8.26333 5.02745 8.33225 5.15989C8.40117 5.29234 8.43746 5.43932 8.4381 5.58862C8.43874 5.73792 8.40372 5.88522 8.33594 6.01825C8.26817 6.15128 8.1696 6.26619 8.04844 6.35344L1.48594 11.0756C1.34594 11.1766 1.18077 11.237 1.00865 11.2501C0.836531 11.2632 0.664134 11.2285 0.510462 11.1499C0.356791 11.0712 0.227812 10.9517 0.137741 10.8045C0.0476707 10.6572 5.7467e-06 10.4879 0 10.3153V0.939375ZM11.25 0.46875C11.25 0.34443 11.2006 0.225201 11.1127 0.137294C11.0248 0.0493861 10.9056 0 10.7812 0C10.6569 0 10.5377 0.0493861 10.4498 0.137294C10.3619 0.225201 10.3125 0.34443 10.3125 0.46875V10.7812C10.3125 10.9056 10.3619 11.0248 10.4498 11.1127C10.5377 11.2006 10.6569 11.25 10.7812 11.25C10.9056 11.25 11.0248 11.2006 11.1127 11.1127C11.2006 11.0248 11.25 10.9056 11.25 10.7812V0.46875Z" fill="#DBDBDB"/>
</svg>
