<svg viewBox="0 0 12 12" fill="none" xmlns="http://www.w3.org/2000/svg">
<path d="M11.25 0.939375C11.25 0.767441 11.2027 0.598819 11.1133 0.451954C11.0239 0.305088 10.8958 0.185636 10.7431 0.106661C10.5904 0.0276862 10.4189 -0.00776897 10.2474 0.00417374C10.0759 0.0161164 9.91093 0.0749971 9.77062 0.174375L3.20813 4.82719C3.08622 4.91339 2.98667 5.02745 2.91775 5.15989C2.84883 5.29234 2.81254 5.43932 2.8119 5.58862C2.81126 5.73792 2.84628 5.88522 2.91406 6.01825C2.98184 6.15128 3.0804 6.26619 3.20156 6.35344L9.76406 11.0756C9.90406 11.1766 10.0692 11.237 10.2413 11.2501C10.4135 11.2632 10.5859 11.2285 10.7395 11.1499C10.8932 11.0712 11.0222 10.9517 11.1123 10.8045C11.2023 10.6572 11.25 10.4879 11.25 10.3153V0.939375ZM0 0.46875C0 0.34443 0.0493851 0.225201 0.137293 0.137294C0.225201 0.0493861 0.344429 0 0.46875 0C0.59307 0 0.712298 0.0493861 0.800206 0.137294C0.888114 0.225201 0.9375 0.34443 0.9375 0.46875V10.7812C0.9375 10.9056 0.888114 11.0248 0.800206 11.1127C0.712298 11.2006 0.59307 11.25 0.46875 11.25C0.344429 11.25 0.225201 11.2006 0.137293 11.1127C0.0493851 11.0248 0 10.9056 0 10.7812V0.46875Z" fill="#DBDBDB"/>
</svg>
