<svg width="17" height="17" viewBox="0 0 17 17" fill="none" xmlns="http://www.w3.org/2000/svg">
<path d="M0.75 13.5H3.681C3.93216 13.4999 4.17928 13.4368 4.39969 13.3163C4.6201 13.1959 4.80675 13.0221 4.9425 12.8107L7.875 8.25L10.8075 3.6885C10.9433 3.47732 11.13 3.30363 11.3504 3.18334C11.5708 3.06304 11.8179 3.00001 12.069 3H15.75M15.75 13.5H12.069C11.8178 13.4999 11.5707 13.4368 11.3503 13.3163C11.1299 13.1959 10.9433 13.0221 10.8075 12.8107L9.32175 10.5M0.75 3H3.681C3.93209 3.00001 4.17917 3.06304 4.39957 3.18334C4.61998 3.30363 4.80666 3.47732 4.9425 3.6885L6.42825 6" stroke="#DBDBDB" stroke-width="1.5" stroke-linecap="round" stroke-linejoin="round"/>
<path d="M13.5 0.75L15.75 3L13.5 5.25M13.5 11.25L15.75 13.5L13.5 15.75" stroke="#DBDBDB" stroke-width="1.5" stroke-linecap="round" stroke-linejoin="round"/>
</svg>
